<?xml version="1.0" encoding="UTF-8" standalone="no"?>
<!-- Created with Inkscape (http://www.inkscape.org/) -->

<svg
   xmlns:dc="http://purl.org/dc/elements/1.1/"
   xmlns:cc="http://creativecommons.org/ns#"
   xmlns:rdf="http://www.w3.org/1999/02/22-rdf-syntax-ns#"
   xmlns:svg="http://www.w3.org/2000/svg"
   xmlns="http://www.w3.org/2000/svg"
   xmlns:sodipodi="http://sodipodi.sourceforge.net/DTD/sodipodi-0.dtd"
   xmlns:inkscape="http://www.inkscape.org/namespaces/inkscape"
   width="210mm"
   height="297mm"
   viewBox="0 0 744.09448819 1052.3622047"
   id="svg2"
   version="1.1"
   inkscape:version="0.91 r13725"
   sodipodi:docname="blueberry.svg">
  <defs
     id="defs4" />
  <sodipodi:namedview
     id="base"
     pagecolor="#ffffff"
     bordercolor="#666666"
     borderopacity="1.0"
     inkscape:pageopacity="0.0"
     inkscape:pageshadow="2"
     inkscape:zoom="5.2688194"
     inkscape:cx="702.03199"
     inkscape:cy="512.75575"
     inkscape:document-units="px"
     inkscape:current-layer="layer6"
     showgrid="false"
     inkscape:window-width="2048"
     inkscape:window-height="1089"
     inkscape:window-x="2040"
     inkscape:window-y="-5"
     inkscape:window-maximized="1" />
  <metadata
     id="metadata7">
    <rdf:RDF>
      <cc:Work
         rdf:about="">
        <dc:format>image/svg+xml</dc:format>
        <dc:type
           rdf:resource="http://purl.org/dc/dcmitype/StillImage" />
        <dc:title />
      </cc:Work>
    </rdf:RDF>
  </metadata>
  <g
     inkscape:groupmode="layer"
     id="layer3"
     inkscape:label="Leaves Bottom"
     style="display:inline;opacity:1">
    <path
       style="fill:#71be35;fill-opacity:1;fill-rule:evenodd;stroke:#5d9c2c;stroke-width:3.78042769;stroke-linecap:butt;stroke-linejoin:miter;stroke-miterlimit:4;stroke-dasharray:none;stroke-opacity:1"
       d="m 288.89731,89.203277 c 0,0 -57.20992,66.146163 -55.51921,114.433873 2.88772,82.47707 56.43258,97.55568 56.43258,97.55568 l 0.91397,40.36862 -97.13874,28.1369 -84.88717,-82.3257 C 98.6952,277.67157 81.067022,291.05682 94.6005,302.96007 l 19.10213,16.81862 -10.88151,27.22343 c 0,0 -67.035134,19.13943 -84.430396,89.87124 -19.628356,79.81171 30.877094,158.85318 30.877094,158.85318 0,0 109.167252,-65.25088 110.939092,-146.1251 1.53812,-70.20456 -41.95716,-106.23306 -41.95716,-106.23306 l 4.52729,-14.51518 110.76047,114.37429 0.89364,81.69018 12.70826,-1.8069 -1.80702,-70.80877 54.62568,56.75029 14.41594,-17.49378 -38.18434,-37.44959 67.17502,0 c 0,0 29.02564,18.57407 45.29303,23.33153 25.55091,7.47246 53.65262,6.63219 53.65262,6.63219 0,0 -3.96497,-33.34046 -8.61772,-52.65986 -4.65275,-19.31939 -12.2715,-36.29793 -12.2715,-36.29793 0,0 29.47218,1.34209 57.18716,-9.98797 116.96462,-47.81578 147.05837,-135.24359 147.05837,-135.24359 0,0 -106.24263,-52.66535 -176.08871,-41.7585 -130.00118,20.30036 -147.0584,131.60983 -147.0584,131.60983 l -2.72039,-42.65205 c 0,0 49.34027,-28.7966 49.00629,-87.15089 C 348.45266,148.32299 288.89791,89.203277 288.89791,89.203277 Z M 303.65078,347.4589 c 0,0 -8.5125,33.12727 -0.45648,52.63994 11.77515,28.52178 31.09546,45.39225 31.09546,45.39225 l -65.12979,0.21858 -69.67693,-69.6571 z"
       id="path4259"
       inkscape:connector-curvature="0"
       sodipodi:nodetypes="cscccccccscsccccccccccscscscsccsccscccc" />
  </g>
  <g
     inkscape:groupmode="layer"
     id="layer7"
     inkscape:label="Blueberry 4"
     style="display:inline">
    <path
       style="opacity:1;fill:#1e65f4;fill-opacity:1;stroke:#0944bf;stroke-width:3.78042769;stroke-miterlimit:4;stroke-dasharray:none;stroke-opacity:1"
       d="m 394.1971,689.21162 c -72.19662,-8.8e-4 -130.72271,57.7154 -130.7163,128.90938 0.0203,65.93957 50.4963,121.23461 116.99534,128.15479 0,0 -2.36415,27.97804 1.90624,27.97804 4.27038,0 21.80259,-24.94005 21.80259,-24.94005 0,0 23.02014,19.03035 27.73979,18.20861 4.71962,-0.82146 17.33476,-30.85981 20.21405,-32.00895 2.87927,-1.14912 29.55482,16.72702 32.00893,14.37633 2.45412,-2.35078 -13.3636,-27.50151 -13.3636,-27.50151 C 504.72464,898.19083 524.85157,859.421 524.91338,818.121 524.92,746.92702 466.39369,689.2101 394.1971,689.21162 Z"
       id="path3417-7"
       inkscape:connector-curvature="0"
       sodipodi:nodetypes="ccczczzzccc" />
  </g>
  <g
     inkscape:groupmode="layer"
     id="layer2"
     inkscape:label="Blueberries 5"
     style="display:inline;opacity:1">
    <path
       style="fill:#3574f6;fill-opacity:1;stroke:#0944bf;stroke-width:3.78042769;stroke-miterlimit:4;stroke-dasharray:none;stroke-opacity:1"
       d="m 543.0624,587.54558 c -72.19661,-8.8e-4 -130.7227,57.7154 -130.71629,128.90939 0.006,71.18614 58.52751,128.89098 130.71629,128.88945 17.57307,-0.0406 34.95644,-3.58393 51.11096,-10.4049 0,0 16.58957,24.4094 20.35315,22.994 3.76357,-1.41539 2.54163,-31.52674 2.54163,-31.52674 0,0 35.76898,2.12767 37.44281,-0.12403 1.67383,-2.25119 0.061,-37.82638 0.061,-37.82638 0,0 33.21632,0.41887 33.21632,-2.54968 0,-2.96865 -24.13328,-19.79081 -24.13328,-19.79081 6.67336,-15.73038 10.11546,-32.6101 10.12685,-49.66143 0.007,-71.19397 -58.51968,-128.9109 -130.71629,-128.90938 z"
       id="path3417-6"
       inkscape:connector-curvature="0"
       sodipodi:nodetypes="cccczczczccc" />
  </g>
  <g
     inkscape:groupmode="layer"
     id="layer6"
     inkscape:label="Blueberry 3"
     style="display:inline">
    <ellipse
       style="opacity:1;fill:#276bf5;fill-opacity:1;stroke:#0944bf;stroke-width:3.78042769;stroke-miterlimit:4;stroke-dasharray:none;stroke-opacity:1"
       id="path3417-3"
       cx="570.71002"
       cy="499.73547"
       rx="130.71347"
       ry="128.89801" />
    <path
       style="color:#000000;clip-rule:nonzero;display:inline;overflow:visible;visibility:visible;opacity:1;isolation:auto;mix-blend-mode:normal;color-interpolation:sRGB;color-interpolation-filters:linearRGB;solid-color:#000000;solid-opacity:1;fill:#6c9bf8;fill-opacity:1;fill-rule:nonzero;stroke:none;stroke-width:1;stroke-linecap:butt;stroke-linejoin:miter;stroke-miterlimit:4;stroke-dasharray:none;stroke-dashoffset:0;stroke-opacity:1;color-rendering:auto;image-rendering:auto;shape-rendering:auto;text-rendering:auto;enable-background:accumulate"
       d="m 632.42682,538.41002 c 0,0 -8.43733,-13.57871 0.42943,-26.69633 8.86709,-13.11775 23.85408,-9.56149 23.85408,-9.56149 0,0 10.58336,-19.91087 22.02741,-17.53575 11.44411,2.37503 6.66198,24.21248 6.66198,24.21248 0,0 15.87554,-1.28817 14.29112,15.69471 -1.58458,16.98285 -19.12635,23.85661 -19.12635,23.85661 0,0 1.0067,17.4846 -12.78664,25.62979 -13.79342,8.14529 -20.41577,-7.38452 -20.41577,-7.38452 0,0 -15.16443,13.01252 -21.38273,-0.0689 -6.21822,-13.08151 6.44707,-28.14669 6.44707,-28.14669 z"
       id="path4285"
       inkscape:connector-curvature="0"
       sodipodi:nodetypes="czczczczczc" />
    <path
       style="color:#000000;clip-rule:nonzero;display:inline;overflow:visible;visibility:visible;opacity:1;isolation:auto;mix-blend-mode:normal;color-interpolation:sRGB;color-interpolation-filters:linearRGB;solid-color:#000000;solid-opacity:1;fill:#0a4fdd;fill-opacity:1;fill-rule:nonzero;stroke:none;stroke-width:1;stroke-linecap:butt;stroke-linejoin:miter;stroke-miterlimit:4;stroke-dasharray:none;stroke-dashoffset:0;stroke-opacity:1;color-rendering:auto;image-rendering:auto;shape-rendering:auto;text-rendering:auto;enable-background:accumulate"
       d="m 656.73838,503.11714 c -3.5477,1.96797 -22.35534,30.57506 -22.86078,35.01711 -0.50557,4.44211 12.02244,25.21688 14.23405,26.53357 2.21162,1.31668 28.70371,-14.09649 30.91238,-17.21663 2.43955,-3.44632 6.49345,-35.30571 5.17599,-37.99211 -1.31747,-2.6864 -23.91394,-8.30993 -27.46164,-6.34194 z"
       id="path4283"
       inkscape:connector-curvature="0"
       sodipodi:nodetypes="zzzszz" />
  </g>
  <g
     inkscape:groupmode="layer"
     id="layer5"
     inkscape:label="Blueberry 2"
     style="display:inline">
    <path
       style="opacity:1;fill:#3574f6;fill-opacity:1;stroke:#0944bf;stroke-width:3.78042769;stroke-miterlimit:4;stroke-dasharray:none;stroke-opacity:1"
       d="M 239.89112,509.48913 A 130.71347,128.89801 0 0 0 109.17473,638.3786 130.71347,128.89801 0 0 0 186.95321,756.12851 l -0.061,0.061 c 0,0 -0.59881,29.03043 0.57543,29.03043 1.17394,0 21.21263,-19.91617 24.72152,-19.91628 3.5088,0 19.4289,26.03211 24.95973,26.03211 5.53083,0 26.82042,-25.31719 28.19645,-25.31719 1.37597,0 11.77375,20.3332 12.887,20.3332 0.92516,0 2.81503,-18.72749 3.53452,-26.0321 A 130.71347,128.89801 0 0 0 370.58556,638.38002 130.71347,128.89801 0 0 0 239.8892,509.49057 Z"
       id="path3417-5"
       inkscape:connector-curvature="0" />
  </g>
  <g
     inkscape:groupmode="layer"
     id="layer4"
     inkscape:label="Blueberry 1"
     style="display:inline;opacity:1">
    <ellipse
       style="opacity:1;fill:#4f86f7;fill-opacity:1;stroke:#0944bf;stroke-width:3.78042769;stroke-miterlimit:4;stroke-dasharray:none;stroke-opacity:1"
       id="path3417"
       cx="376.04285"
       cy="571.21259"
       rx="130.71347"
       ry="128.89801" />
    <path
       sodipodi:nodetypes="czczczczczc"
       inkscape:connector-curvature="0"
       id="path4295"
       d="m 403.5415,663.34228 c 0,0 -21.41847,10.21803 -28.20372,-0.52007 -6.78509,-10.7385 9.26535,-28.88852 9.26535,-28.88852 0,0 -12.64864,-12.81697 -0.75668,-26.67629 11.89193,-13.85942 31.34169,-8.06801 31.34169,-8.06801 0,0 11.59488,-19.2261 28.46519,-17.30726 16.87016,1.919 9.88812,23.16297 9.88812,23.16297 0,0 19.52432,-1.21917 16.96524,15.48527 -2.55903,16.70452 -24.5813,24.72454 -24.5813,24.72454 0,0 1.52667,18.36489 -17.54666,25.89557 -19.0733,7.53058 -24.83771,-7.80773 -24.83771,-7.80773 z"
       style="color:#000000;clip-rule:nonzero;display:inline;overflow:visible;visibility:visible;opacity:1;isolation:auto;mix-blend-mode:normal;color-interpolation:sRGB;color-interpolation-filters:linearRGB;solid-color:#000000;solid-opacity:1;fill:#6c9bf8;fill-opacity:1;fill-rule:nonzero;stroke:none;stroke-width:1;stroke-linecap:butt;stroke-linejoin:miter;stroke-miterlimit:4;stroke-dasharray:none;stroke-dashoffset:0;stroke-opacity:1;color-rendering:auto;image-rendering:auto;shape-rendering:auto;text-rendering:auto;enable-background:accumulate" />
    <path
       sodipodi:nodetypes="zzzszz"
       inkscape:connector-curvature="0"
       id="path4297"
       d="m 386.86283,633.70518 c -0.79403,4.29644 14.43566,27.07344 18.7739,27.68556 4.33819,0.61227 36.79632,-14.55977 40.01187,-17.23815 3.21555,-2.67839 8.37753,-34.76164 6.84502,-37.43648 -1.69273,-2.95441 -32.45712,-7.86391 -36.40709,-6.26837 -3.94997,1.59551 -28.42968,28.961 -29.2237,33.25744 z"
       style="color:#000000;clip-rule:nonzero;display:inline;overflow:visible;visibility:visible;opacity:1;isolation:auto;mix-blend-mode:normal;color-interpolation:sRGB;color-interpolation-filters:linearRGB;solid-color:#000000;solid-opacity:1;fill:#2b6df5;fill-opacity:1;fill-rule:nonzero;stroke:none;stroke-width:1;stroke-linecap:butt;stroke-linejoin:miter;stroke-miterlimit:4;stroke-dasharray:none;stroke-dashoffset:0;stroke-opacity:1;color-rendering:auto;image-rendering:auto;shape-rendering:auto;text-rendering:auto;enable-background:accumulate" />
  </g>
  <g
     inkscape:groupmode="layer"
     id="layer8"
     inkscape:label="Leaves Top">
    <path
       sodipodi:nodetypes="cscsc"
       inkscape:connector-curvature="0"
       id="path4168"
       d="m 468.09365,524.49506 c 0,0 1.82364,-61.28892 -23.24659,-105.41924 -40.83128,-71.87403 -140.55028,-71.9215 -140.55028,-71.9215 0,0 -21.51689,68.99204 16.07971,123.29421 27.73942,40.06508 74.96261,64.22927 147.71716,54.04653 z"
       style="display:inline;opacity:1;fill:#71be35;fill-opacity:1;fill-rule:evenodd;stroke:#5d9c2c;stroke-width:3.78042769;stroke-linecap:butt;stroke-linejoin:miter;stroke-miterlimit:4;stroke-dasharray:none;stroke-opacity:1" />
  </g>
</svg>
